# xmcd
#
# Track frame offsets:
#	300
#	17921
#	34701
#	53279
#	69236
#	90047
#	108144
#	124257
#	145042
#	160538
#	178109
#	198981
#	214020
#	233563
#	256439
#	276830
#	293016
#	308668
#
# Disc length: 4333 seconds
#
# Revision: 2
# Processed by: cddbd v1.5.2PL0 Copyright (c) Steve Scherf et al.
# Submitted via: audiograbber 1.83.01
#
DISCID=e510e912
DTITLE=Various Artist - SFG344
DYEAR=2014
DGENRE=karaoke
TTITLE0=Taylor Swift - Shake it off
TTITLE1=Calvin Harris f. John Newman - Blame
TTITLE2=Ella Henderson - Glow
TTITLE3=Vamps  - Oh Cecilia (breaking my heart)
TTITLE4=Nicki Minaj - Anaconda
TTITLE5=Sheppard - Geronimo
TTITLE6=Jessie J, Ariana Grande and Nicki Minaj - Bang Bang
TTITLE7=Jessie Ware - Say you love me
TTITLE8=Meghan Trainer - All about that bass
TTITLE9=Nicole Scherzinger - On the rocks
TTITLE10=Example - 10 million people
TTITLE11=Labrinth - Let it be
TTITLE12=Enrique Iglesias f. Sean Paul - Bailando
TTITLE13=Professor Green f. Tori Kelly - Lullaby
TTITLE14=Chris Brown f. Usher and Rick Ross - New flame
TTITLE15=G.R.L. - Ugly heart
TTITLE16=Lilly Wood and The Prick and Robin Schulz - Prayer In C
TTITLE17=Ella Eyre - Comeback
EXTD=
EXTT0=
EXTT1=
EXTT2=
EXTT3=
EXTT4=
EXTT5=
EXTT6=
EXTT7=
EXTT8=
EXTT9=
EXTT10=
EXTT11=
EXTT12=
EXTT13=
EXTT14=
EXTT15=
EXTT16=
EXTT17=
PLAYORDER=
